<svg height="512px" width="512px" xml:space="preserve" style="enable-background:new 0 0 490.656 490.656" viewBox="0 0 490.656 490.656" y="0px" x="0px" id="Capa_1" version="1.1" xmlns:xlink="http://www.w3.org/1999/xlink" xmlns="http://www.w3.org/2000/svg">
    <g>
        <g>
            <g>
                <path fill="#ffff" class="active-path" data-original="#000000" d="M487.536,216.467c-4.16-4.16-10.923-4.16-15.083,0L245.339,443.581L18.203,216.467c-4.16-4.16-10.923-4.16-15.083,0    c-4.16,4.16-4.16,10.923,0,15.083l234.667,234.667c2.091,2.069,4.821,3.115,7.552,3.115s5.461-1.045,7.531-3.115l234.667-234.667    C491.696,227.389,491.696,220.627,487.536,216.467z"></path>
            </g>
        </g>
        <g>
            <g>
                <path fill="#ffff" class="active-path" data-original="#000000" d="M487.536,24.445c-4.16-4.16-10.923-4.16-15.083,0L245.339,251.581L18.203,24.467c-4.16-4.16-10.923-4.16-15.083,0    c-4.16,4.16-4.16,10.923,0,15.083l234.667,234.667c2.091,2.069,4.821,3.115,7.552,3.115s5.461-1.045,7.531-3.136L487.536,39.528    C491.696,35.368,491.696,28.605,487.536,24.445z"></path>
            </g>
        </g>
    </g>
</svg>
